<?xml version="1.0" standalone="no"?><!DOCTYPE svg PUBLIC "-//W3C//DTD SVG 1.1//EN" "http://www.w3.org/Graphics/SVG/1.1/DTD/svg11.dtd"><svg t="1721490077657" class="icon" viewBox="0 0 1024 1024" version="1.1" xmlns="http://www.w3.org/2000/svg" p-id="5769" xmlns:xlink="http://www.w3.org/1999/xlink" width="64" height="64"><path d="M888.6 851.9L669.1 632.5c44.9-53.3 72-122.1 72-197 0-169-137.5-306.6-306.5-306.6S128 266.4 128 435.4 265.5 742 434.5 742c75.9 0 145.3-27.8 198.9-73.6l219.3 219.3c4.9 4.9 11.4 7.4 17.9 7.4 6.5 0 13-2.5 17.9-7.4 10-9.9 10-25.9 0.1-35.8z m-710-416.5c0-141.1 114.8-255.9 255.9-255.9s255.9 114.8 255.9 255.9c0 141.1-114.8 255.9-255.9 255.9S178.6 576.6 178.6 435.4z" p-id="5770" fill="#8a8a8a"></path></svg>