<?xml version="1.0" standalone="no"?><!DOCTYPE svg PUBLIC "-//W3C//DTD SVG 1.1//EN"
        "http://www.w3.org/Graphics/SVG/1.1/DTD/svg11.dtd">
<svg t="1721572858435" class="icon" viewBox="0 0 1024 1024" version="1.1" xmlns="http://www.w3.org/2000/svg" p-id="1303"
     xmlns:xlink="http://www.w3.org/1999/xlink" width="64" height="64">
    <path d="M519.511813 572.731296a55.712186 55.712186 0 0 1-26.741849-6.685462L53.757941 349.325432a74.654329 74.654329 0 0 1-36.770042-84.682522v-6.128341a67.968866 67.968866 0 0 1 35.655799-43.455504L477.170552 6.138369a61.283404 61.283404 0 0 1 27.856093-6.128341 55.712186 55.712186 0 0 1 26.184727 6.128341L970.223395 222.858771a71.868719 71.868719 0 0 1 35.655799 43.455504 74.654329 74.654329 0 0 1-35.655799 89.696619l-423.412611 209.477818a59.612039 59.612039 0 0 1-27.298971 7.242584zM506.69801 55.722214L78.828425 265.200032A15.04229 15.04229 0 0 0 69.914475 278.570956a20.613509 20.613509 0 0 0 6.685462 22.841996L515.61196 516.461989l430.098073-210.03494a20.613509 20.613509 0 0 0 6.685462-23.399118 15.599412 15.599412 0 0 0-6.685462-10.028193z"
          fill="#3fdc85" p-id="1304"></path>
    <path d="M519.511813 798.365648a62.95477 62.95477 0 0 1-26.741849-6.12834L14.202289 557.131884l24.513362-50.140967L515.61196 742.096341l467.425237-233.99118 25.070484 50.140967-461.296897 233.434058a59.612039 59.612039 0 0 1-27.298971 6.685462z"
          fill="#3fdc85" p-id="1305"></path>
    <path d="M519.511813 1024a62.95477 62.95477 0 0 1-26.741849-6.12834L14.202289 783.88048l24.513362-50.140967L515.61196 967.730693l467.425237-233.99118 25.070484 50.140967-461.296897 233.434058a59.612039 59.612039 0 0 1-27.298971 6.685462z"
          fill="#3fdc85" p-id="1306"></path>
</svg>