<?xml version="1.0" standalone="no"?><!DOCTYPE svg PUBLIC "-//W3C//DTD SVG 1.1//EN" "http://www.w3.org/Graphics/SVG/1.1/DTD/svg11.dtd"><svg t="1721490105878" class="icon" viewBox="0 0 1024 1024" version="1.1" xmlns="http://www.w3.org/2000/svg" p-id="7931" xmlns:xlink="http://www.w3.org/1999/xlink" width="64" height="64"><path d="M869.5296 245.0432h-277.7088A152.7296 152.7296 0 0 0 440.832 113.0496H144.0768A41.6768 41.6768 0 0 0 102.4 154.7264v704.1536c0 28.7744 23.3472 52.0704 52.0704 52.0704h715.008c28.7744 0 52.0704-23.3472 52.0704-52.0704V297.1136a52.0192 52.0192 0 0 0-52.0192-52.0704zM154.4704 165.1712H440.832c48.4352 0 88.9856 34.304 98.7136 79.872H154.4704v-79.872z m715.0592 693.6576H154.4704V297.7792H593.92v-0.6656h275.6096v561.7152z" p-id="7932" fill="#8a8a8a"></path><path d="M229.0688 480.8704a25.6 25.4464 0 1 0 51.2 0 25.6 25.4464 0 1 0-51.2 0Z" p-id="7933" fill="#8a8a8a"></path><path d="M360.2944 453.8368a26.624 26.624 0 0 0-26.5728 26.5728v0.9216a26.624 26.624 0 0 0 26.5728 26.5728H768a26.624 26.624 0 0 0 26.5728-26.5728v-0.9216A26.624 26.624 0 0 0 768 453.8368H360.2944z" p-id="7934" fill="#8a8a8a"></path><path d="M229.0688 669.3376a25.6 25.4464 0 1 0 51.2 0 25.6 25.4464 0 1 0-51.2 0Z" p-id="7935" fill="#8a8a8a"></path><path d="M768 642.304H360.2944a26.624 26.624 0 0 0-26.5728 26.5728v0.9216a26.624 26.624 0 0 0 26.5728 26.5728H768a26.624 26.624 0 0 0 26.5728-26.5728v-0.9216a26.624 26.624 0 0 0-26.5728-26.5728z" p-id="7936" fill="#8a8a8a"></path></svg>